{"title":"The.Wiggles.Hoop.Dee.Doo[2002]DVDRIP.XVID[Eng]-Bearmeister.avi","uid":3971430,"size":566332530,"categoryP":"video","categoryS":"movies","magnet":"?xt=urn:btih:e65e00c44458d865d46fc6da5bbcbe02528a2f88&amp;dn=The.Wiggles.Hoop.Dee.Doo%5B2002%5DDVDRIP.XVID%5BEng%5D-Bearmeister.avi&amp;tr=udp%3A%2F%2Ftracker.openbittorrent.com%3A80&amp;tr=udp%3A%2F%2Fopen.demonii.com%3A1337&amp;tr=udp%3A%2F%2Ftracker.coppersurfer.tk%3A6969&amp;tr=udp%3A%2F%2Fexodus.desync.com%3A6969","seeders":0,"leechers":3,"uploader":"bearmeister","files":1,"time":1200024303,"description":"  Duration: 00:52:54.9, bitrate: 1427 kb/s\n  Stream #0.0: Video: mpeg4, 720x480, 29.97 fps\n  Stream #0.1: Audio: mp3, 44100 Hz, stereo, 96 kb/s\n\nThere&amp;#039;s rarely a warm seat in the house whenever the Wiggles command the screen. This time Greg, Murray, Jeff, and Anthony host 50 minutes of flash and pizzazz in Hoop-Dee-Doo! It&amp;#039;s a Wiggly Party. Over a dozen vibrant song and dance routines will inspire 2- to 8-year-olds to &quot;Dance the Ooby Doo,&quot; &quot;Move Like an Emu,&quot; and embrace the true spirit of &quot;Hoop-Dee-Doo!&quot; As if the delightful energy generated by these melodic gents and their usual cast of extras isn&amp;#039;t enough, huge kaleidoscopic backdrops groove along with each song. Then there&amp;#039;s Captain Feathersword: often giddy to the point of falsetto, here the good captain&amp;#039;s comedic antics nearly cause his pirate buttons to pop. But, hey--it&amp;#039;s a party! So fluff that feather sword, shine those dancin&amp;#039; shoes, and prepare to wiggle up an hour&amp;#039;s worth of giggles, polkas, wobbles, and hula steps. (Yes, &quot;mums and dads&quot; find Wiggles tunes irresistible, too.)","torrent":{"xt":"urn:btih:e65e00c44458d865d46fc6da5bbcbe02528a2f88","amp;dn":"The.Wiggles.Hoop.Dee.Doo%5B2002%5DDVDRIP.XVID%5BEng%5D-Bearmeister.avi","amp;tr":["udp%3A%2F%2Ftracker.openbittorrent.com%3A80","udp%3A%2F%2Fopen.demonii.com%3A1337","udp%3A%2F%2Ftracker.coppersurfer.tk%3A6969","udp%3A%2F%2Fexodus.desync.com%3A6969"],"infoHash":"e65e00c44458d865d46fc6da5bbcbe02528a2f88","infoHashBuffer":{"type":"Buffer","data":[230,94,0,196,68,88,216,101,212,111,198,218,91,188,190,2,82,138,47,136]},"announce":[],"urlList":[]}}